<mxfile host="app.diagrams.net" agent="Mozilla/5.0 (Macintosh; Intel Mac OS X 10_15_7) AppleWebKit/537.36 (KHTML, like Gecko) Chrome/127.0.0.0 Safari/537.36" version="24.7.6">
  <diagram name="Page-1" id="e3a06f82-3646-2815-327d-82caf3d4e204">
    <mxGraphModel dx="1080" dy="685" grid="1" gridSize="10" guides="1" tooltips="1" connect="1" arrows="1" fold="1" page="1" pageScale="1.5" pageWidth="1169" pageHeight="826" background="none" math="0" shadow="0">
      <root>
        <mxCell id="0" style=";html=1;" />
        <mxCell id="1" style=";html=1;" parent="0" />
        <mxCell id="tJAOBsKrG57pNrItpGiq-8" style="rounded=0;orthogonalLoop=1;jettySize=auto;html=1;entryX=0;entryY=0.5;entryDx=0;entryDy=0;" edge="1" parent="1" source="tJAOBsKrG57pNrItpGiq-2" target="tJAOBsKrG57pNrItpGiq-4">
          <mxGeometry relative="1" as="geometry" />
        </mxCell>
        <mxCell id="tJAOBsKrG57pNrItpGiq-2" value="user vpn client" style="rounded=1;whiteSpace=wrap;html=1;" vertex="1" parent="1">
          <mxGeometry x="140" y="150" width="120" height="60" as="geometry" />
        </mxCell>
        <mxCell id="tJAOBsKrG57pNrItpGiq-9" style="rounded=0;orthogonalLoop=1;jettySize=auto;html=1;exitX=1;exitY=0.5;exitDx=0;exitDy=0;" edge="1" parent="1" source="tJAOBsKrG57pNrItpGiq-3">
          <mxGeometry relative="1" as="geometry">
            <mxPoint x="480" y="230" as="targetPoint" />
          </mxGeometry>
        </mxCell>
        <mxCell id="tJAOBsKrG57pNrItpGiq-3" value="user vpn client" style="rounded=1;whiteSpace=wrap;html=1;" vertex="1" parent="1">
          <mxGeometry x="140" y="280" width="120" height="60" as="geometry" />
        </mxCell>
        <mxCell id="tJAOBsKrG57pNrItpGiq-6" value="" style="edgeStyle=orthogonalEdgeStyle;rounded=0;orthogonalLoop=1;jettySize=auto;html=1;" edge="1" parent="1" source="tJAOBsKrG57pNrItpGiq-4" target="tJAOBsKrG57pNrItpGiq-5">
          <mxGeometry relative="1" as="geometry" />
        </mxCell>
        <mxCell id="tJAOBsKrG57pNrItpGiq-11" style="edgeStyle=orthogonalEdgeStyle;rounded=0;orthogonalLoop=1;jettySize=auto;html=1;" edge="1" parent="1" source="tJAOBsKrG57pNrItpGiq-4">
          <mxGeometry relative="1" as="geometry">
            <mxPoint x="770" y="225" as="targetPoint" />
          </mxGeometry>
        </mxCell>
        <mxCell id="tJAOBsKrG57pNrItpGiq-4" value="&amp;nbsp;china mainland service" style="rhombus;whiteSpace=wrap;html=1;" vertex="1" parent="1">
          <mxGeometry x="480" y="160" width="120" height="130" as="geometry" />
        </mxCell>
        <mxCell id="tJAOBsKrG57pNrItpGiq-26" style="edgeStyle=orthogonalEdgeStyle;rounded=0;orthogonalLoop=1;jettySize=auto;html=1;" edge="1" parent="1" source="tJAOBsKrG57pNrItpGiq-5">
          <mxGeometry relative="1" as="geometry">
            <mxPoint x="540" y="290" as="targetPoint" />
          </mxGeometry>
        </mxCell>
        <mxCell id="tJAOBsKrG57pNrItpGiq-5" value="direct access" style="whiteSpace=wrap;html=1;" vertex="1" parent="1">
          <mxGeometry x="480" y="380" width="120" height="60" as="geometry" />
        </mxCell>
        <mxCell id="tJAOBsKrG57pNrItpGiq-7" value="Inner flow" style="text;html=1;align=center;verticalAlign=middle;whiteSpace=wrap;rounded=0;" vertex="1" parent="1">
          <mxGeometry x="550" y="311" width="60" height="30" as="geometry" />
        </mxCell>
        <mxCell id="tJAOBsKrG57pNrItpGiq-10" value="VPN Channel" style="text;html=1;align=center;verticalAlign=middle;whiteSpace=wrap;rounded=0;" vertex="1" parent="1">
          <mxGeometry x="340" y="160" width="60" height="30" as="geometry" />
        </mxCell>
        <mxCell id="tJAOBsKrG57pNrItpGiq-15" value="" style="edgeStyle=orthogonalEdgeStyle;rounded=0;orthogonalLoop=1;jettySize=auto;html=1;" edge="1" parent="1" source="tJAOBsKrG57pNrItpGiq-12" target="tJAOBsKrG57pNrItpGiq-14">
          <mxGeometry relative="1" as="geometry" />
        </mxCell>
        <mxCell id="tJAOBsKrG57pNrItpGiq-17" value="" style="edgeStyle=orthogonalEdgeStyle;rounded=0;orthogonalLoop=1;jettySize=auto;html=1;" edge="1" parent="1" source="tJAOBsKrG57pNrItpGiq-12" target="tJAOBsKrG57pNrItpGiq-16">
          <mxGeometry relative="1" as="geometry" />
        </mxCell>
        <mxCell id="tJAOBsKrG57pNrItpGiq-25" style="edgeStyle=orthogonalEdgeStyle;rounded=0;orthogonalLoop=1;jettySize=auto;html=1;entryX=1;entryY=0.5;entryDx=0;entryDy=0;" edge="1" parent="1" source="tJAOBsKrG57pNrItpGiq-12" target="tJAOBsKrG57pNrItpGiq-4">
          <mxGeometry relative="1" as="geometry" />
        </mxCell>
        <mxCell id="tJAOBsKrG57pNrItpGiq-12" value="oversea service" style="rhombus;whiteSpace=wrap;html=1;" vertex="1" parent="1">
          <mxGeometry x="770" y="177.5" width="110" height="95" as="geometry" />
        </mxCell>
        <mxCell id="tJAOBsKrG57pNrItpGiq-13" value="Outer flow" style="text;html=1;align=center;verticalAlign=middle;whiteSpace=wrap;rounded=0;" vertex="1" parent="1">
          <mxGeometry x="650" y="190" width="60" height="30" as="geometry" />
        </mxCell>
        <mxCell id="tJAOBsKrG57pNrItpGiq-24" style="edgeStyle=orthogonalEdgeStyle;rounded=0;orthogonalLoop=1;jettySize=auto;html=1;entryX=0.5;entryY=1;entryDx=0;entryDy=0;" edge="1" parent="1" source="tJAOBsKrG57pNrItpGiq-14" target="tJAOBsKrG57pNrItpGiq-12">
          <mxGeometry relative="1" as="geometry" />
        </mxCell>
        <mxCell id="tJAOBsKrG57pNrItpGiq-14" value="blog static html" style="whiteSpace=wrap;html=1;" vertex="1" parent="1">
          <mxGeometry x="765" y="370" width="120" height="60" as="geometry" />
        </mxCell>
        <mxCell id="tJAOBsKrG57pNrItpGiq-19" style="edgeStyle=orthogonalEdgeStyle;rounded=0;orthogonalLoop=1;jettySize=auto;html=1;" edge="1" parent="1" source="tJAOBsKrG57pNrItpGiq-16" target="tJAOBsKrG57pNrItpGiq-12">
          <mxGeometry relative="1" as="geometry" />
        </mxCell>
        <mxCell id="tJAOBsKrG57pNrItpGiq-16" value="resource" style="whiteSpace=wrap;html=1;" vertex="1" parent="1">
          <mxGeometry x="1060" y="195" width="120" height="60" as="geometry" />
        </mxCell>
        <mxCell id="tJAOBsKrG57pNrItpGiq-20" value="other censorship flow" style="text;html=1;align=center;verticalAlign=middle;whiteSpace=wrap;rounded=0;" vertex="1" parent="1">
          <mxGeometry x="847" y="295" width="73" height="35" as="geometry" />
        </mxCell>
        <mxCell id="tJAOBsKrG57pNrItpGiq-22" value="pass auth" style="text;html=1;align=center;verticalAlign=middle;whiteSpace=wrap;rounded=0;" vertex="1" parent="1">
          <mxGeometry x="930" y="180" width="60" height="30" as="geometry" />
        </mxCell>
      </root>
    </mxGraphModel>
  </diagram>
</mxfile>
